<svg width="54" height="54" viewBox="0 0 54 54" fill="none" xmlns="http://www.w3.org/2000/svg">
<path d="M6.58333 53.25C4.97917 53.25 3.6059 52.6788 2.46354 51.5365C1.32118 50.3941 0.75 49.0208 0.75 47.4167V6.58333C0.75 4.97917 1.32118 3.6059 2.46354 2.46354C3.6059 1.32118 4.97917 0.75 6.58333 0.75H47.4167C49.0208 0.75 50.3941 1.32118 51.5365 2.46354C52.6788 3.6059 53.25 4.97917 53.25 6.58333V47.4167C53.25 49.0208 52.6788 50.3941 51.5365 51.5365C50.3941 52.6788 49.0208 53.25 47.4167 53.25H6.58333ZM6.58333 6.58333V47.4167H47.4167V6.58333H41.5833V27L34.2917 22.625L27 27V6.58333H6.58333Z" fill="#806EE7"/>
</svg>
