<svg width="57" height="60" viewBox="0 0 57 60" fill="none" xmlns="http://www.w3.org/2000/svg">
<path d="M3.66667 59.1665C2.84028 59.1665 2.14757 58.887 1.58854 58.328C1.02951 57.769 0.75 57.0763 0.75 56.2499V15.5624C0.75 14.8332 0.895833 14.2134 1.1875 13.703C1.47917 13.1926 1.96528 12.7915 2.64583 12.4999L31.8125 0.833204C32.7847 0.444315 33.684 0.577996 34.5104 1.23425C35.3368 1.8905 35.75 2.72904 35.75 3.74987V12.4999H38.6667C39.4931 12.4999 40.1858 12.7794 40.7448 13.3384C41.3038 13.8974 41.5833 14.5901 41.5833 15.4165V24.1665H35.75V18.3332H6.58333V53.3332H21.6771L27.5104 59.1665H3.66667ZM18.25 12.4999H29.9167V7.97904L18.25 12.4999ZM41.5833 59.1665C37.5486 59.1665 34.1094 57.7447 31.2656 54.9009C28.4219 52.0572 27 48.6179 27 44.5832C27 40.5485 28.4219 37.1092 31.2656 34.2655C34.1094 31.4217 37.5486 29.9999 41.5833 29.9999C45.6181 29.9999 49.0573 31.4217 51.901 34.2655C54.7448 37.1092 56.1667 40.5485 56.1667 44.5832C56.1667 48.6179 54.7448 52.0572 51.901 54.9009C49.0573 57.7447 45.6181 59.1665 41.5833 59.1665ZM37.9375 51.8749L49.6042 44.5832L37.9375 37.2915V51.8749Z" fill="#806EE7"/>
</svg>
