<svg width="60" height="60" viewBox="0 0 60 60" fill="none" xmlns="http://www.w3.org/2000/svg">
<path d="M11.4791 24.2395L17.1666 26.6458C17.8472 25.2847 18.552 23.9722 19.2812 22.7083C20.0104 21.4444 20.8125 20.1805 21.6875 18.9166L17.6041 18.1145L11.4791 24.2395ZM21.8333 30.2916L30.1458 38.5312C32.1875 37.7534 34.375 36.5624 36.7083 34.9583C39.0416 33.3541 41.2291 31.5312 43.2708 29.4895C46.6736 26.0867 49.335 22.3072 51.2552 18.151C53.1753 13.9947 54.0139 10.1666 53.7708 6.66661C50.2708 6.42355 46.4305 7.26209 42.25 9.18223C38.0694 11.1024 34.2777 13.7638 30.875 17.1666C28.8333 19.2083 27.0104 21.3958 25.4062 23.7291C23.802 26.0624 22.6111 28.2499 21.8333 30.2916ZM34.8125 25.552C33.6944 24.434 33.1354 23.0607 33.1354 21.4322C33.1354 19.8038 33.6944 18.4305 34.8125 17.3124C35.9305 16.1944 37.3159 15.6354 38.9687 15.6354C40.6215 15.6354 42.0069 16.1944 43.125 17.3124C44.243 18.4305 44.802 19.8038 44.802 21.4322C44.802 23.0607 44.243 24.434 43.125 25.552C42.0069 26.6701 40.6215 27.2291 38.9687 27.2291C37.3159 27.2291 35.9305 26.6701 34.8125 25.552ZM36.1979 48.9583L42.3229 42.8333L41.5208 38.7499C40.2569 39.6249 38.993 40.4149 37.7291 41.1197C36.4652 41.8246 35.1527 42.5173 33.7916 43.1979L36.1979 48.9583ZM59.0208 1.34369C59.9444 7.22564 59.3732 12.9496 57.3073 18.5156C55.2413 24.0815 51.6805 29.3923 46.625 34.4479L48.0833 41.6666C48.2777 42.6388 48.2291 43.5867 47.9375 44.5104C47.6458 45.434 47.1597 46.2361 46.4791 46.9166L34.2291 59.1666L28.1041 44.802L15.6354 32.3333L1.27079 26.2083L13.4479 13.9583C14.1284 13.2777 14.9427 12.7916 15.8906 12.4999C16.8385 12.2083 17.7986 12.1597 18.7708 12.3541L25.9895 13.8124C31.0451 8.75689 36.3437 5.18397 41.8854 3.09369C47.427 1.00341 53.1388 0.42008 59.0208 1.34369ZM6.44788 41.5937C8.14927 39.8923 10.2274 39.0295 12.6823 39.0051C15.1371 38.9808 17.2152 39.8194 18.9166 41.5208C20.618 43.2222 21.4566 45.3003 21.4323 47.7552C21.4079 50.21 20.5451 52.2881 18.8437 53.9895C17.6284 55.2048 15.5989 56.2499 12.7552 57.1249C9.91142 57.9999 5.98607 58.7777 0.979126 59.4583C1.65968 54.4513 2.43746 50.526 3.31246 47.6822C4.18746 44.8385 5.2326 42.809 6.44788 41.5937ZM10.6041 45.677C10.118 46.1631 9.6319 47.0503 9.14579 48.3385C8.65968 49.6267 8.3194 50.927 8.12496 52.2395C9.43746 52.0451 10.7378 51.717 12.026 51.2551C13.3142 50.7933 14.2013 50.3194 14.6875 49.8333C15.2708 49.2499 15.5868 48.5451 15.6354 47.7187C15.684 46.8923 15.4166 46.1874 14.8333 45.6041C14.25 45.0208 13.5451 44.7413 12.7187 44.7656C11.8923 44.7899 11.1875 45.0937 10.6041 45.677Z" fill="#806EE7"/>
</svg>
